<?xml version="1.0" encoding="utf-8"?>
<!-- Generator: Adobe Illustrator 19.0.0, SVG Export Plug-In . SVG Version: 6.00 Build 0)  -->
<svg version="1.1" id="图层_1" xmlns="http://www.w3.org/2000/svg" xmlns:xlink="http://www.w3.org/1999/xlink" x="0px" y="0px"
	 viewBox="0 0 1280 800" style="enable-background:new 0 0 1280 800;" xml:space="preserve">
<style type="text/css">
	.st0{fill:#FEA6A6;}
	.st1{fill:#FEFEFE;}
	.st2{fill:#A8FED9;}
</style>
<path id="XMLID_29_" class="st0" d="M422.8,307.7c7.6,12.9,15.1,25.9,22.8,38.8c0.7,1.2-0.1,1.8-0.4,2.5
	c-6.1,10.6-12.2,21.2-18.3,31.8c-5.5,9.6-10.9,19.3-16.6,28.7c-6.1,10-11.9,20.2-17.8,30.3c-5.9,10-11.5,20.2-17.3,30.3
	c-6.6,11.7-13.5,23.3-20.2,34.9c-5.3,9.1-10.5,18.3-15.8,27.5c-8.6,14.9-17.3,29.9-26,44.8c-6.4,11-12.5,22.2-19.2,33.1
	c-1.2,1.9-1.2,4.8-3.9,5.7c-1.8,0-2.1-1.6-2.7-2.7c-7.1-12.1-14.1-24.3-21.2-36.4c-4.6-7.8-9.1-15.7-13.8-23.5
	c-4.2-7.1-8-14.4-12.3-21.4c-4.2-7-8.2-14-12.3-21c-5-8.7-10-17.4-14.9-26.1c-6.2-10.9-12.7-21.6-18.8-32.6
	c-4.8-8.5-9.8-17-14.7-25.5c-7.1-12.3-14.3-24.7-21.4-37c-4.5-7.8-9.4-15.3-13.2-23.4c-1.2-2.5-1-2.9,1.7-2.9
	c6.8,0,13.7-0.9,20.5,0.4c4.6,6.7,8.1,14,12.2,21c4.3,7.2,8.7,14.4,12.8,21.8c4.5,8,9,16,13.6,23.9c4,6.8,7.8,13.8,12,20.5
	c2.5,4,4.6,8.3,7,12.4c5.1,8.8,10,17.8,15.2,26.6c7.3,12.2,14,24.8,21.4,36.9c2.5,4.1,5.1,8.2,7.3,12.6c3.2,4.1,5,9,7.7,13.4
	c2.4,3.9,2.6,4.1,4.9,0.1c2.8-5,5.4-10,8.5-14.8c3.8-6,7.1-12.2,10.6-18.4c5.1-9,10.3-18,15.5-27.1c3.2-5.5,6.2-11.2,9.7-16.6
	c3.3-5.1,6-10.6,9.1-15.9c3.2-5.5,6.6-11,9.7-16.6c3.1-5.6,6.4-11.2,9.6-16.7c3.5-6.1,7.1-12.2,10.6-18.3c3-5.2,6.2-10.3,9-15.6
	c2.7-5.2,5.8-10.2,8.8-15.3c6-9.9,10.9-20.5,16.9-30.4c4.3-7.1,8.6-14.1,12.4-21.4c2.5-4.9,5-9.8,7.9-14.5
	C420.2,310.1,420.8,308.2,422.8,307.7z"/>
<path id="XMLID_28_" class="st1" d="M422.8,307.7c-4.3,6.1-7.4,12.9-11.1,19.5c-6.5,11.6-13.7,22.8-19.8,34.6
	c-3.1,6-6.4,11.9-9.6,17.8c-2.3,4.2-4.8,8.4-7.4,12.4c-2.3,3.5-4.1,7.5-6.2,11.2c-4,7-8,13.9-12,20.9c-4.6,7.9-8.8,16.1-13.9,23.6
	c-2.5,3.8-4.2,8.1-6.9,11.8c-2.2,3.1-4,6.7-5.9,10.1c-1.8,3.1-3.4,6.3-5.5,9.3c-2.3,3.3-3.8,7.2-6,10.7c-2.4,3.9-4.3,8.1-6.8,12
	c-2.6,4.2-4.8,8.6-7.3,12.8c-3.3,5.6-6.5,11.3-9.8,16.9c-3.2,5.5-6.3,11-9.5,16.4c-2,3.4-4.1,6.7-6.2,10.2
	c-4.5-5.5-6.9-12.4-11-18.2c0.7-4,3.4-7,5.3-10.3c5.2-9.2,10.6-18.4,15.9-27.6c3.9-6.6,7.8-13.3,11.6-19.9c2.7-4.7,5.8-9.3,8.1-14.3
	c1.8-3.9,4.5-7.3,6.5-11.1c2-3.7,4.1-7.4,6.4-10.9c3.7-5.7,6.2-12,10.1-17.5c2.8-4,4.7-8.7,7.4-12.8c4.2-6.7,7.7-13.7,11.8-20.5
	c4.2-6.9,8.1-14,12.1-21c1.8-3.1,3-6.5,5.3-9.3c2.3-4.8,5.2-9.4,7.9-14c0.6-1.1,1.8-2.1,1-3.4c-0.8-1.3-2.3-1.3-3.4-0.8
	c-2.6,1-5.2,0-7.8,0.3c-8.1,1.1-16.3-0.6-24.5-0.3c-6.2,0.3-12.4-0.6-18.5,0c-7.4,0.7-14.8-1-22.2,0.6c-2,0.4-4.4-0.3-6.7-0.4
	c-7.4-0.1-14.7,0.1-22.1,0.1c-21,0-42.1-0.1-63.1,0.2c-9,0.1-18,0.2-27,0.3c-20.3,0.2-40.6,0.3-60.9,0.4c-8.5,0-17-1.1-25.5-0.9
	c-1.3,0-3.1,0.4-3.6-1.6c7-12.2,14-24.4,20.9-36.6c0.9-1.5,2-1.6,3.4-1.6c18,0,35.9,0.1,53.9,0.1c15.8,0,31.7-0.2,47.5,0.1
	c13.6,0.3,27.2-0.1,40.8,0.2c13.4,0.2,26.8-0.2,40.3-0.2c9.2,0,18.5,0,27.7,0c19.7,0,39.3-0.1,59-0.1c9.7,0,19.4,0.2,29.1,0.3
	c2.7,0.4,5.4-0.2,8,0.3L422.8,307.7z"/>
<path id="XMLID_27_" class="st2" d="M92.1,345.1c4.3,1.9,8.8,0.7,13.2,1.1c10.9,1.1,21.9,0.5,32.9,0.5c4.6,0,9.2-0.2,13.7-0.3
	c3.5-0.1,7.1-0.4,10.7,0.1c2.3,0.3,4.9,0.5,7.3-0.4c1.6-0.6,3.4,0.2,4.9,0.3c5.5,0.5,11-0.4,16.6-0.1c3.7,0.2,7.7,0,11.6-0.2
	c9.8-0.4,19.7-0.1,29.5-0.1c7.5,0,15-0.1,22.5,0c3,0,5.9-0.4,8.8-0.4c5.5-0.1,11,0.6,16.5,0.3c3.8-0.2,7.6-0.2,11.3,0
	c2.9,0.2,6.2-2.3,9,0.6c0.1,0.1,2.8-0.3,4.3-0.5c4.3-0.6,8.4-0.8,12.6,0.1c2.7,0.6,5.4-0.7,8.2-0.5c3.4,0.2,7.2-0.7,10.3,0
	c3,0.7,5.5-0.4,8.2-0.2c2.8,0.2,5.7,0.4,8.5,0.5c2,0,4.2-0.4,6.4,0.4c1.2,0.5,3,1.3,4.1-0.7c0.1-0.2,0.8-0.3,1.2-0.2
	c3.2,0.9,6.4,0.7,9.7,0.1c1.4-0.3,3.8-0.4,4.5,1.4c0.5,1.2-0.2,2.9-1.5,4.2c-2.2,2.2-3.1,5.3-4.6,8c-1.1,1.8-3.2,3.3-3.1,5.8
	c-9.5,0.3-19,0.3-28.5,0.3c-18,0-36.1,0-54.1,0c-24.7,0-49.4,0.1-74,0c-13.3-0.1-26.6,0.3-39.9-0.2c-2-0.1-4,0.7-5.8-0.6
	c-7.5,0-14.9,0-22.6,0c3.9,6.8,7.5,13.4,11.3,19.9c5.1,8.8,10.4,17.3,15.3,26.2c3.9,7.2,8.4,14.1,12.1,21.4
	c1.9,3.7,4.3,7.2,6.4,10.8c1.4,2.4,2.8,4.8,4.3,7.3c4.4,7.5,8.6,15.1,13.1,22.5c3.5,5.8,6.7,11.7,10,17.6c4.6,8,9.4,15.9,13.8,24
	c5.8,10.6,12,21,18,31.5c6.9,11.9,13.9,23.8,20.9,35.7c6.5,11.1,13,22.3,19.4,33.4c0.3,0.5,0.7,1,1.1,1.5c0.2,2.1-1.6,1.1-2.1,1.1
	c-6.4,0.2-12.8,0.4-19.2,0.1c-6.3-0.3-12.7-0.3-19-0.1c-3.7,0.2-4.6-1.8-5.7-3.8c-8-13.8-15.8-27.6-23.8-41.4
	c-8.6-15-17.4-30.1-26-45.1c-7.8-13.6-15.7-27.1-23.5-40.7c-8.2-14.1-16.4-28.2-24.6-42.4c-9.2-15.9-18.4-31.9-27.6-47.9
	c-6-10.4-12.1-20.8-17.9-31.4c-2.9-5.3-6-10.4-9-15.5C90.8,347.4,90.6,346.3,92.1,345.1z"/>
<path id="XMLID_26_" class="st0" d="M422.6,307.6c-2.7,0-5.4,0.5-8-0.3C417.3,307.2,420,306.6,422.6,307.6z"/>
<path id="XMLID_25_" d="M267.9,539.8"/>
</svg>
